<svg version="1" xmlns="http://www.w3.org/2000/svg" width="1600" height="1600" viewBox="0 0 1200.000000 1200.000000"><path d="M269.3 165.4c-.4.8-4.4 5.2-8.7 9.8-9.4 9.9-15.6 16.4-33.6 35.8-7.4 7.9-15.6 16.7-18.2 19.4-2.7 2.9-4.3 5.5-3.9 6.1 1.7 2.2 12.4 16 13.1 16.7.6.8 4.6-2.7 14.7-12.5l5.2-5.1 11.2 11.6 11.1 11.6 12.8-13.2c7-7.2 15.3-15.8 18.4-19l5.7-5.9-2.9-3.1c-1.5-1.7-5.7-6.2-9.3-9.9-3.5-3.8-6.6-7.3-6.7-7.8-.2-.5 2.9-4.6 6.9-9.1l7.4-8.1-10-9.3c-5.5-5.2-10.5-9.4-11.2-9.4-.7 0-1.6.6-2 1.4zM916.3 172.8l-9.1 8.7 3.9 5c2.2 2.7 5.6 7.4 7.6 10.3l3.7 5.3-9.3 9.3-9.3 9.3 5.4 5c2.9 2.8 6.9 6.5 8.8 8.3 10.1 9.3 15 13.8 19.7 18.3l5.2 5 4.9-5.4c9.8-10.7 13.2-13.9 14.9-13.9 1 0 4.3 2.5 7.5 5.7l5.7 5.6 8.9-9 9-9-33.6-33.6C941.6 179.1 926.3 164 926 164c-.3.1-4.6 4-9.7 8.8zM284.6 246.9l-17.7 17.8 8.3 7.2 8.3 7.1 4.5-4.8c2.5-2.7 7.7-8.4 11.5-12.7 3.9-4.3 9-10.1 11.5-12.8 2.5-2.7 4.5-5.3 4.5-5.7 0-.8-10.5-12.2-12.2-13.3-.5-.3-8.9 7.4-18.7 17.2zM887.5 236.7c-3.3 3.6-6.2 7-6.3 7.4-.2.5 7.3 8.7 16.7 18.2l17.1 17.2 6.9-7.5c3.9-4.1 7-7.8 7.1-8.1 0-.7-33.6-33.3-34.8-33.6-.4-.2-3.4 2.7-6.7 6.4zM307.8 267.2c-8.6 8.8-15.4 16.5-15.2 17.1.5 1.1 13 11.9 14.5 12.5 1.1.5 29.9-29.4 29.9-31.1 0-.5-2.6-3.6-5.7-6.9-3.2-3.2-5.9-6.4-6.1-6.9-.2-.5-.7-.9-1-.8-.4 0-7.8 7.2-16.4 16.1zM866.8 259.4l-5.7 6.4 3.7 3.4c2 1.9 9.4 9.4 16.4 16.7l12.8 13.2 6.5-6.8 6.5-6.8-16.7-16.2c-9.3-8.9-17-16.3-17.3-16.3-.3 0-3.1 2.9-6.2 6.4zM847.6 280.4c-2.5 3.5-4.6 6.9-4.6 7.4s2.3 3.4 5.1 6.3c18.3 19.2 24.1 24.9 25.2 24.2 2.7-1.6 13.7-10.7 13.7-11.3 0-.7-32.8-32.3-34-32.8-.4-.2-2.8 2.6-5.4 6.2zM328.8 291.6c-7.6 7.4-13.8 13.8-13.8 14 0 .3 3.1 3.6 6.8 7.4l6.8 6.9 5.5-6.1c2.9-3.3 6.8-7.5 8.4-9.3 3.2-3.4 10.5-11.5 13.9-15.3l2-2.2-4.4-4.5c-3.6-3.7-5.1-4.5-8-4.5-3.2 0-4.8 1.3-17.2 13.6zM738.7 294.2c-.9 1.3-7 7.9-13.6 14.8l-12 12.5 12.8 12.7 12.9 12.8-5 5.2c-2.7 2.9-6.7 8-8.9 11.3-2.4 3.8-13.3 15.2-29.1 30.5-13.8 13.5-30.7 30-37.6 36.6l-12.4 12.2 2.8 4.8c2.7 4.5 2.9 5.8 3.1 15.9l.2 11 3.8.8c3.5.8 16.6.4 22.3-.7 3.8-.8 75.8-11.4 81.5-12.1 4.5-.5 5.6-1.2 10.5-6.4 7.3-7.6 28.6-30.3 31.3-33.4 1.2-1.4 4.2-3.4 6.6-4.6l4.4-2.1 13.1 12.8c7.2 7 13.4 13.1 13.8 13.7.8 1.1 1.5.5 15.5-13.2l10.4-10.2-22.2-22.1-22.2-22 1.6-5.8c2.7-9.9 3.2-10.7 7.4-12.1 2.2-.7 5.2-2.9 7.1-5.1 3-3.5 3.2-4.1 2-5.8-1.3-2-11.5-13.4-20.3-22.9l-5-5.4-5 4.2c-2.7 2.2-6 6.1-7.3 8.5-1.2 2.4-2.4 4.4-2.7 4.4-.2 0-2.7.9-5.4 2l-4.9 1.9-23.5-23.4c-12.9-12.9-23.7-23.5-24-23.5-.2 0-1.2 1-2 2.2zM451.2 298.8c-2.9 3.1-12.3 12.7-20.8 21.3l-15.5 15.7h-6.7l-6.7.1-7-8.4c-3.8-4.6-7.4-8.4-8-8.4-.5 0-3 2.4-5.4 5.2-2.4 2.9-7.8 9-12 13.6s-8 9.1-8.5 9.9c-.9 1.6-.2 2.3 12.7 13.7 3.1 2.8 4.7 5.1 5.2 7.5l.6 3.5-26 23-26 23 13.7 13.2c12.7 12.1 13.8 13 15.3 11.5.9-1 8.5-8.4 16.9-16.5l15.2-14.9 3.7 3.6c2 1.9 7.7 7.4 12.6 12.1 5 4.8 15.5 15.1 23.5 23l14.5 14.3 10 .7c12.4.8 46.4 4.7 60.5 7 3 .5 8.7 1.2 15.9 2 3 .4 6.3.8 7.3 1 3 .6 11.8-5.2 11.9-7.8.4-9.5.7-13.1 1.9-19l1.3-6.9-6.6-6.6c-3.6-3.7-10.1-10.3-14.4-14.8-8-8.3-71.5-73.3-72.9-74.7-.4-.4 5.2-6.6 12.5-13.8 7.3-7.1 13.2-13.2 13-13.4-3.3-3.6-25.4-25.5-25.8-25.5-.3.1-3 2.7-5.9 5.8zM349.2 310.6l-14.3 14.3 7.4 7.5 7.3 7.6 14.3-14.5c15.1-15.3 15.2-15.5 10.4-19.6-1-.9-3.5-3.4-5.6-5.7-2.1-2.3-4.1-4.1-4.5-4-.4 0-7.1 6.6-15 14.4zM827.2 303.3l-7.2 7.4 6.8 6.3c3.7 3.5 9.9 9.3 13.7 12.9 10.6 10.1 9.7 9.6 14.7 6.7 2.4-1.4 5.6-3.6 7.2-4.9l2.8-2.3-4.2-5c-2.4-2.7-8.1-9-12.7-14.1-4.6-5-9.4-10.3-10.6-11.7-1.3-1.4-2.5-2.6-2.8-2.6-.3 0-3.7 3.3-7.7 7.3z"/><path d="M16 387.1c1.9 1.7 5.5 5 8 7.3s11.2 10.2 19.5 17.6c8.2 7.4 15.9 14.4 17.1 15.5 2.6 2.5 17.3 15.8 22.6 20.4 2.1 1.9 3.6 3.6 3.4 3.8-.4.4-21.9-7-28.1-9.7-1.1-.5-14.1-5.2-29-10.6-14.8-5.3-27.6-9.9-28.3-10.1-.7-.3-1.2.3-1.2 1.6 0 1.9 6.7 5.5 46 24.8 25.2 12.5 45.8 22.9 45.5 23.1-.2.2-3 .5-6.2.7-9.3.5-25.7 1.4-40.8 2.1-7.7.3-15.1.8-16.5 1-1.4.1-4.7.3-7.5.4l-5 .2 6 1.9c3.3 1 24 7.2 46 13.8 33.5 10 39.6 12.1 37.5 12.9-1.4.5-14.7 4.2-29.7 8.3-15 4.1-26.9 7.7-26.5 8 .4.4 7.2.9 15.2 1.3 37.6 1.5 43.6 1.8 45.5 2.1 1.1.2 3.2.4 4.6.4 2.2.1.8 1.9-11.8 14.8-7.9 8-14.2 14.7-14.1 14.8.2.1 11-3.6 24.1-8.2 13.1-4.7 24.1-8.3 24.3-8 .5.4-4.4 12.5-9.8 24.7-2.8 6.2-5.8 13.1-6.9 15.7-.6 1.7 2.3 0 10.9-6.1 6.4-4.6 14.4-10.2 17.7-12.5l6-4.2.6 4.3c.9 5.7 1.5 10.3 3 21.8.7 5.2 1.4 9.7 1.5 9.9.2.2 5.6-5.1 12.1-11.8l11.8-12.1 3.1 2.6 3.1 2.6-2.8 9.1c-1.6 5.1-2.9 9.4-2.9 9.6 0 .2 4.3-3.6 9.5-8.4l9.5-8.7 3.8 1.5c2 .8 3.8 2.1 3.8 2.8.1.8.2 4.1.3 7.4l.1 6 7.9 4.6 7.9 4.7.6-3.2c.3-1.7.8-5.3 1.2-7.9.3-2.6 1-4.7 1.5-4.5.4.2 8.3 6.6 17.5 14.3 9.2 7.7 17.7 14.5 18.9 15.2 1.9 1 62.9 26.3 133 55 8.8 3.6 18.5 7.6 21.5 8.9 3 1.3 24.3 10 47.4 19.4l41.8 17.2 4.7-1.7c4.4-1.7 9.2-3.6 13.6-5.6 1.1-.5 7.9-3.3 15.2-6.3l13.2-5.4.7 7.9c.3 4.3.7 8.2.7 8.6 0 .5 1.8 3.5 4 6.7l4 5.9-.7 12c-.6 11.8-.7 12.2-3.7 15.3-1.9 2-6.9 11.6-13.3 25.5-8.4 18.2-12.7 26.2-23.4 42.8-11.9 18.4-13.1 20.8-12.7 24 .2 2 .7 7 1 11.1 1.7 24.3 1.8 23-.9 34.2-3.5 14.5-3.5 14.7 1.7 10.6 7-5.5 7.6-6.3 9.2-11.6 1.7-5.5 2.2-6.2 9.1-11.8 4.2-3.5 4.6-3.6 7.1-2.3 2.5 1.3 2.5 1.6 2 8.9-.3 4.3-1.4 9.6-2.6 12.3-1.6 3.7-2.1 6.9-2.1 13.8 0 6.2-.5 9.9-1.6 12-2.2 4.3-1.4 18.6 1.4 25.4l2.1 5v-4.6c.1-5.7 3.6-17.5 6.2-20.8 1.5-1.9 1.9-4 1.9-10.3 0-9.5 2.5-16.2 7.3-19.6l3.2-2.2.8 5.7c.4 3.2 1.7 10.8 2.8 17 1.7 9.6 1.9 11.7.8 15.5-1.8 6-1.9 45.2-.2 42.9.7-.9 1.3-2.1 1.3-2.8 0-.7 1.3-2.7 2.9-4.5 1.7-2 3.2-5 3.5-7.3.9-6.3 1.8-11.8 2.2-13.9.2-1 1.6-3.1 3.1-4.6 1.5-1.5 3.4-4.9 4.3-7.6 1.5-4.4 6.2-9.6 7.5-8.2.3.3.8 5.4 1 11.4 1.2 25.5 1.6 30.8 2.3 31.8 1.7 2.4 4.1 11.5 4.7 18.1 1.4 15.4 3.2 31.9 3.9 35 .3 1.1.5 4.5.6 7.5l.1 5.5 1.4-4.5c4-13.7 8.5-35.9 9-44.6.5-7.4 1.1-10.7 2.6-13.1 1.8-2.9 2.6-6.3 4.2-19.8.3-2.2.9-6.7 1.3-10s.7-6.6.5-7.3c-.2-1.5 2.1-5.4 5.1-8.6 3.7-4 4.9-1 17.7 42.4.9 3.1.7-33-.4-55.7l-.3-6.3 4.1-3c4.9-3.6 5.4-3.6 6.3-.8.3 1.2 2.1 5.3 3.9 9.2 1.8 3.9 3.8 8.6 4.6 10.5.7 1.9 3.6 6.1 6.5 9.3 4.1 4.6 5.3 6.8 5.9 10.4.3 2.5.8 4.4 1 4.2.3-.2.6-3.1.9-6.5.4-5.4.1-6.9-2.5-12.4l-3-6.2-.6-28.1-.5-28.1 4.9 7c2.7 3.8 7.9 11.4 11.6 16.7 3.8 5.4 7 9.8 7.2 9.8.3 0-.1-21.5-.9-44.6l-.5-12.1-19-37.9c-17.2-34.3-19.9-39.1-28.4-50.3l-9.4-12.3 3.8-7.9c2.2-4.4 6.2-15.9 9-25.7 2.8-9.7 5.4-18 5.8-18.4.3-.4 4.9 2.5 10.1 6.3 5.2 3.9 13.9 10.2 19.3 14.1l9.8 7 9.7-4.2c5.3-2.3 11.5-5 13.7-6 2.2-1 39.1-17.2 82-36 98.5-43.2 149.2-65.4 152.9-67.1 1.7-.8 5.1-4.7 8.7-10.1l6-8.8H976l3.8 7.5 3.7 7.5 7.7-14.7c4.2-8.1 8-14.8 8.5-15 .4-.1 4.6 4.7 9.3 10.6 4.7 6 8.6 10.8 8.7 10.7 0 0 .4-6.9.8-15.1.4-8.3.9-15.2 1.1-15.4.2-.2 4.1 3 8.6 7.1 12.3 11 18.8 16.1 18.8 14.9 0-.6-1.2-3.9-2.6-7.4-2.5-6.1-2.6-9.7-.8-19.1.2-1.1.6-3.8 1-6.1.3-2.2.7-4.2.9-4.4.4-.3 18 14 26 21.1 6.2 5.5 14 11.6 14.3 11.4.2-.2-.6-2.3-1.8-4.7-3.2-7.1-18-42.2-18-43.1 0-.4 4.8 1.3 10.8 3.9 5.9 2.5 17.2 6.5 25.2 8.8 16.2 4.8 16.2 5.1 1.4-5.8-6.2-4.5-7.7-6.2-10.8-12.5-2-4-3.6-7.4-3.6-7.6 0-.2 6.6-.2 14.8 0 50.2 1.2 62.8 1.1 58.7-.1-3.8-1.3-59.3-18.6-66.5-20.8l-3.5-1 7.5-1.8c4.1-1 14.9-3.4 24-5.3 44.7-9.4 66-14 65.7-14.2-.1-.2-6.1-.5-13.2-.9-7.2-.3-17-.7-22-1-4.9-.2-16.9-.7-26.5-1.1-9.6-.3-17.7-.8-17.9-.9-.2-.2 20-10.5 44.8-22.9 41.4-20.8 45.1-22.8 45.1-25.1 0-1.4-.5-2.5-1.1-2.5-1.1 0-72.4 23.1-85.3 27.6-3.8 1.4-7 2.3-7.2 2.1-.2-.2 18.1-14.2 40.6-31.2 22.6-16.9 41.4-31.3 41.7-31.9.4-.6-.2-.4-1.3.5-1 .9-23.1 14-49.1 29.3l-47.2 27.7-21.8 5-21.8 5-14.5-.6c-8-.3-17.9-.7-22-1-4.1-.3-13.1-.7-20-1-6.9-.3-16.8-.8-22-1-19-1-26.8-1.4-42.5-2l-16-.6-13 9.3c-24.8 17.9-25.9 18.6-31.1 19.2-2.7.4-9.8 1.3-15.9 2.1-6 .8-13.2 1.7-16 2-2.7.4-7.7 1-11 1.5-8.4 1.3-10.4 1.5-44.5 6-16.8 2.2-31.8 4.2-33.5 4.5-4.9.7-33.7 4.5-38 5.1-4.1.5-10.1 1.3-14.5 1.9-1.4.2-6.3.9-11 1.5s-12.9 1.7-18.3 2.4l-9.8 1.3-2.1-3.5c-1.3-2.2-3.8-4.2-6.7-5.5-2.5-1.1-7.5-3.8-11.1-6-3.6-2.2-6.6-4.1-6.7-4.2-.3-.1-1.8-9.9-2.9-19.5-.5-4.6-1.8-7.2-9-18l-8.5-12.6-3.3-18.5c-1.9-10.1-3.5-17.6-3.6-16.7-.5 3.5-.6 5.5-1.5 18.3-.5 7.1-1 13.8-1.1 14.7-.1 1-.2 2.4-.3 3.1 0 .8-3.1 5.8-6.7 11.3-3.7 5.4-6.5 10-6.4 10.2.1.1-.8 5.1-2 10.9-1.9 9-3 11.8-6.8 17.5-4 6.1-5 7-9.5 8.3-2.8.8-5.5 1.5-6 1.5-.4 0-3.9 1.8-7.7 4.1l-6.8 4-7.4-3.7c-8-4-6.9-3.9-57.3-9.9-7.1-.8-16.4-2-20.5-2.5-4.1-.5-9.5-1.2-12-1.5-2.5-.3-6.3-.7-8.5-1-2.2-.3-16.8-2.1-32.5-4s-30.1-3.7-32-4c-1.9-.2-11.1-1.4-20.5-2.5-22.4-2.7-22.2-2.7-23.7-3.6-.7-.4-8.4-6.1-17-12.7l-15.8-12-8.2.7c-4.6.4-10.1.9-12.3 1.1-2.2.2-7.1.7-11 1-3.8.3-9 .8-11.5 1.1-7.5.7-37.1 3.4-44 3.9-3.6.3-8.3.7-10.5 1-5 .5-12.8 1.2-31.5 2.9l-14.5 1.3-9-5c-4.9-2.7-12.4-6.7-16.5-8.9s-8.8-4.9-10.5-5.8c-3.1-1.9-45.3-25.1-56.5-31.2-3.6-1.9-8.5-4.7-11-6-2.5-1.4-7-3.9-10-5.5-3-1.7-9.5-5.3-14.5-8-13.8-7.7-14.6-8-10.5-4.2z"/><path d="M770 721c-22.8 9.8-42.1 18.2-42.9 18.7-1.1.7-.3 1.6 3.2 3.8 4.4 2.8 4.6 3.2 5.8 9.8 1.4 7.8 3.8 12.3 3.9 7.2 0-3.6 3.1-8.9 6.1-10.5 1.7-1 3-.9 6 0 3.7 1.2 4.9 3 4.9 7.4 0 1.1 1.2 3.4 2.6 5.3 2.3 3 2.4 3.8 1.5 6.5-1.4 3.9.2 13.3 2.8 16.7l1.8 2.4.7-5.1c.9-6.9 4.1-10.7 8.2-9.8 2.9.7 6.4 5.2 6.4 8.3 0 .9 1.1 3.9 2.5 6.7 1.7 3.6 2.7 7.5 3.1 12.9.3 4.3.9 8.8 1.3 9.9.7 1.8.9 1.5 1.9-2.3.7-2.9 2.6-6 5.2-8.8 3.6-3.8 4.4-4.2 7.3-3.6 4.5.9 8 3.6 8.8 7 .5 1.5.6 7.3.4 12.9l-.5 10.1 10.3 7.6c18.2 13.6 38 26.6 49.2 32.3 10.3 5.2 35.6 13.7 45.5 15.2 1.9.3 4.6.7 5.9.9 2.8.5 9.2 1.4 14.1 2.1 1.9.2 16.3.7 32 1l28.5.6-40.1-39.9c-32.1-31.8-144-142.4-144.7-142.9-.1-.1-18.9 7.9-41.7 17.6zM381.9 704.8c-.4.9-20.7 21.7-143.6 146.1-17.7 17.9-32.5 33-33 33.5-.9.9 64.3.1 73.7-.9 9.4-1 30.1-5.6 38.5-8.5 15.6-5.4 52.6-28.1 63.9-39.1l8-7.8.3-11.3c.3-13.7 1.5-18.3 5.3-19.7 5.7-1.9 19 9 19 15.8.1 2.2.2 2.3 1.1.9 1.1-2 .5-14.2-1-18.2-1.6-4-1.3-12 .5-16.5 3.9-9.9 16.7-6.6 22.3 5.9l2.1 4.5.1-3.5c.2-4.7.1-14-.1-22-.3-11.4 3.2-16.4 11-15.5 3.6.4 5.1 1.3 7.7 4.3 1.8 2 3.6 5.3 4.1 7.2l.9 3.5 1.1-3.8c.6-2.1.8-5.9.5-8.3-.5-4.3-.3-4.8 3.2-8 2.1-1.9 3.6-3.6 3.3-3.9-.7-.7-83.8-34.5-86.4-35.1-1.2-.3-2.3-.1-2.5.4z"/></svg>